<svg width="55" height="64" viewBox="0 0 55 64" fill="none" xmlns="http://www.w3.org/2000/svg">
<path d="M36.3002 26.2937C40.0571 27.2213 42.9327 28.9142 44.9271 31.3724C46.9679 33.7842 47.9883 36.7063 47.9883 40.1385C47.9883 43.0605 47.1766 45.797 45.5533 48.3479C43.9763 50.8525 41.5181 52.8933 38.1787 54.4702C34.8392 56.0472 30.6881 56.8357 25.7253 56.8357C22.2931 56.8357 18.8609 56.4646 15.4287 55.7225C12.0429 54.9804 9.07451 53.8905 6.52354 52.4527L12.0893 40.3472C14.0837 41.5067 16.2172 42.3879 18.4899 42.9909C20.8089 43.5939 23.0352 43.8953 25.1688 43.8953C27.0704 43.8953 28.601 43.5707 29.7605 42.9213C30.92 42.272 31.4998 41.3444 31.4998 40.1385C31.4998 37.9122 29.575 36.799 25.7253 36.799H19.2552V26.7111L26.4211 19.4061H9.02813V7.02232H45.3446V17.1102L36.3002 26.2937Z" fill="#FF000C"/>
<path fill-rule="evenodd" clip-rule="evenodd" d="M19.255 26.7112L26.4209 19.4061H9.02799V7.02238H45.3444V17.1103L36.3001 26.2937C38.8001 26.911 40.9099 27.8672 42.6294 29.1623C43.4939 29.8133 44.2598 30.5501 44.927 31.3725C46.9678 33.7843 47.9882 36.7063 47.9882 40.1385C47.9882 43.0605 47.1765 45.797 45.5531 48.348C43.9762 50.8526 41.518 52.8933 38.1785 54.4703C34.8391 56.0472 30.688 56.8357 25.7252 56.8357C22.293 56.8357 18.8608 56.4647 15.4286 55.7226C14.4302 55.5037 13.4681 55.2547 12.5423 54.9753C11.8696 54.7724 11.2161 54.5535 10.5817 54.3186C9.12835 53.7804 7.77559 53.1585 6.52341 52.4527L12.0891 40.3472C13.0718 40.9185 14.0883 41.4223 15.1385 41.8585C15.5989 42.0497 16.0658 42.228 16.5392 42.3932C17.1776 42.6161 17.8278 42.8153 18.4897 42.9909C18.746 43.0576 19.0011 43.1205 19.255 43.1798C19.4685 43.2296 19.6812 43.2768 19.8931 43.3214C21.7105 43.7041 23.469 43.8954 25.1686 43.8954C27.0703 43.8954 28.6008 43.5707 29.7604 42.9214C30.9199 42.272 31.4997 41.3444 31.4997 40.1385C31.4997 37.9122 29.5748 36.7991 25.7252 36.7991H19.255V26.7112ZM12.7327 33.8567V26.7112C12.7327 26.4482 12.7486 26.1869 12.7798 25.9285H9.02799C5.4258 25.9285 2.50564 23.0083 2.50564 19.4061V7.02238C2.50564 3.42018 5.4258 0.500031 9.02799 0.500031H45.3444C48.9466 0.500031 51.8668 3.42018 51.8668 7.02238V17.1103C51.8668 18.8229 51.1932 20.4667 49.9915 21.6869L47.2338 24.4871C48.2147 25.2943 49.1236 26.2001 49.9494 27.2108C53.0458 30.8951 54.5105 35.3293 54.5105 40.1385C54.5105 44.3411 53.3233 48.2819 51.0632 51.838C48.6777 55.6193 45.1434 58.3943 40.9636 60.3681C36.5078 62.4722 31.3366 63.3581 25.7252 63.3581C21.819 63.3581 17.9248 62.9354 14.0502 62.0976L14.0322 62.0937C10.1262 61.2376 6.52879 59.9428 3.32085 58.1347C0.363903 56.468 -0.820508 52.8121 0.597403 49.7281L6.16314 37.6226C6.93103 35.9525 8.36803 34.6839 10.1205 34.1291C10.9731 33.8591 11.8618 33.7704 12.7327 33.8567Z" fill="white"/>
</svg>
